<?xml version="1.0" encoding="utf-8"?>
<!-- Generator: Adobe Illustrator 16.0.0, SVG Export Plug-In . SVG Version: 6.00 Build 0)  -->
<!DOCTYPE svg PUBLIC "-//W3C//DTD SVG 1.1//EN" "http://www.w3.org/Graphics/SVG/1.1/DTD/svg11.dtd">
<svg version="1.1" id="Layer_1" xmlns="http://www.w3.org/2000/svg" xmlns:xlink="http://www.w3.org/1999/xlink" x="0px" y="0px"
	 width="264px" height="41px" viewBox="0 0 264 41" enable-background="new 0 0 264 41" xml:space="preserve">
<g id="logo__x28_final_x29_">
	<g>
		<path display="none" fill="none" stroke="#000000" stroke-width="3.0454" stroke-miterlimit="10" d="M1.341,14.254
			C3.59,6.989,10.25,1.722,18.115,1.722c4.857,0,9.254,2.008,12.437,5.255"/>
		<g>
			<path fill="#1292BC" d="M36.094,32.042l0.003,0.003c-4.26,5.561-9.933,8.708-15.982,8.864c-0.175,0.004-0.347,0.008-0.522,0.008
				C9.005,40.917,0.267,32.543,0,22.021l2.882-0.076c0.233,9.088,7.945,16.289,17.159,16.047c5.167-0.137,10.058-2.883,13.774-7.735
				l0.006,0.004L57.006,2.359l3.474,0.09L36.094,32.042z"/>
		</g>
		<g>
			<polygon fill="#1292BC" points="27.087,29.756 24.961,27.932 47.141,1.657 50.88,1.496 			"/>
		</g>
		<g>
			<polygon fill="#1292BC" points="45.449,16.778 43.76,19.433 63.266,40.986 66.877,41 			"/>
		</g>
		<g>
			<path fill="#1292BC" d="M3.006,15.749l-2.925-0.645C2.044,6.819,9.169,0.777,17.812,0.069c5.274-0.431,10.39,1.177,14.406,4.531
				l-1.964,2.188c-3.399-2.839-7.729-4.197-12.188-3.835C10.729,3.554,4.677,8.696,3.006,15.749z"/>
		</g>
	</g>
	<g>
		<path fill="#323232" stroke="#323232" stroke-width="0.3217" stroke-miterlimit="10" d="M87.425,27.389
			c-1.144-0.757-2.04-1.796-2.69-3.119c-0.649-1.324-0.975-2.815-0.975-4.472c0-1.657,0.325-3.147,0.975-4.471
			c0.65-1.324,1.55-2.363,2.7-3.119s2.436-1.133,3.857-1.133c1.11,0,2.125,0.224,3.045,0.67c0.92,0.447,1.705,1.108,2.355,1.985
			l-1.32,1.535c-1.069-1.348-2.402-2.022-4-2.022c-1.056,0-2.01,0.284-2.862,0.853c-0.853,0.569-1.52,1.353-2,2.352
			c-0.48,0.999-0.721,2.116-0.721,3.35c0,1.234,0.24,2.351,0.721,3.351c0.48,1,1.147,1.783,2,2.352
			c0.853,0.568,1.807,0.854,2.862,0.854c1.583,0,2.917-0.683,4-2.047l1.32,1.535c-0.65,0.877-1.438,1.543-2.365,1.997
			c-0.927,0.455-1.946,0.683-3.056,0.683C89.851,28.521,88.568,28.145,87.425,27.389z"/>
		<path fill="#323232" stroke="#323232" stroke-width="0.3217" stroke-miterlimit="10" d="M106.194,27.389
			c-1.15-0.757-2.054-1.8-2.71-3.132c-0.656-1.332-0.984-2.817-0.984-4.458s0.328-3.127,0.984-4.459
			c0.657-1.332,1.56-2.375,2.71-3.131c1.15-0.756,2.443-1.133,3.878-1.133c1.421,0,2.707,0.378,3.857,1.133
			c1.15,0.755,2.051,1.795,2.7,3.119c0.65,1.324,0.975,2.814,0.975,4.471c0,1.656-0.325,3.146-0.975,4.471
			c-0.649,1.324-1.55,2.363-2.7,3.119c-1.15,0.756-2.436,1.133-3.857,1.133C108.637,28.521,107.344,28.145,106.194,27.389z
			 M112.883,25.5c0.833-0.568,1.489-1.352,1.969-2.352s0.721-2.115,0.721-3.351c0-1.235-0.24-2.351-0.721-3.35
			s-1.137-1.783-1.969-2.352c-0.833-0.568-1.77-0.853-2.812-0.853s-1.987,0.284-2.833,0.853c-0.846,0.569-1.509,1.353-1.989,2.352
			c-0.481,0.999-0.721,2.116-0.721,3.35c0,1.234,0.24,2.351,0.721,3.351c0.48,1,1.144,1.783,1.989,2.352
			c0.846,0.568,1.79,0.854,2.833,0.854C111.114,26.352,112.051,26.068,112.883,25.5z"/>
		<path fill="#323232" stroke="#323232" stroke-width="0.3217" stroke-miterlimit="10" d="M125.074,11.271h5.989
			c1.503,0,2.835,0.357,4,1.072c1.164,0.715,2.067,1.718,2.711,3.009c0.643,1.292,0.963,2.774,0.963,4.447
			c0,1.674-0.32,3.155-0.963,4.446c-0.644,1.292-1.547,2.295-2.711,3.01s-2.496,1.072-4,1.072h-5.989V11.271z M130.942,26.206
			c1.15,0,2.164-0.269,3.035-0.804c0.873-0.535,1.547-1.286,2.021-2.252c0.475-0.967,0.711-2.084,0.711-3.352
			c0-1.267-0.236-2.384-0.711-3.35c-0.475-0.966-1.146-1.718-2.021-2.254c-0.871-0.536-1.885-0.804-3.035-0.804h-3.837v12.815
			H130.942z"/>
		<path fill="#323232" stroke="#323232" stroke-width="0.3217" stroke-miterlimit="10" d="M146.209,11.271h2.029v17.056h-2.029
			V11.271z"/>
		<path fill="#323232" stroke="#323232" stroke-width="0.3217" stroke-miterlimit="10" d="M169.089,11.271v17.056h-1.664
			l-8.526-12.719v12.719h-2.03V11.271h1.665l8.525,12.719V11.271H169.089z"/>
		<path fill="#323232" stroke="#323232" stroke-width="0.3217" stroke-miterlimit="10" d="M187.563,19.701h1.949v6.65
			c-0.703,0.699-1.521,1.234-2.457,1.608c-0.934,0.373-1.908,0.562-2.923,0.562c-1.435,0-2.728-0.377-3.878-1.133
			c-1.15-0.757-2.054-1.796-2.71-3.119c-0.657-1.324-0.985-2.815-0.985-4.472c0-1.657,0.328-3.151,0.985-4.483
			c0.656-1.333,1.563-2.372,2.722-3.119c1.157-0.747,2.459-1.121,3.906-1.121c1.139,0,2.169,0.224,3.098,0.67
			c0.926,0.447,1.715,1.101,2.364,1.961l-1.259,1.511c-1.137-1.316-2.512-1.974-4.121-1.974c-1.083,0-2.055,0.28-2.914,0.84
			c-0.859,0.561-1.531,1.34-2.02,2.339c-0.487,0.999-0.731,2.124-0.731,3.375c0,1.234,0.244,2.352,0.731,3.352
			c0.486,0.998,1.16,1.783,2.02,2.351c0.859,0.569,1.824,0.853,2.895,0.853c1.271,0,2.382-0.365,3.328-1.096V19.701L187.563,19.701z
			"/>
		<path fill="#323232" stroke="#323232" stroke-width="0.3217" stroke-miterlimit="10" d="M202.384,20.748l-2.599,3.168v4.411h-2.03
			V11.271h2.03v9.527l7.715-9.527h2.314l-6.07,7.675l6.456,9.381h-2.376L202.384,20.748z"/>
		<path fill="#323232" stroke="#323232" stroke-width="0.3217" stroke-miterlimit="10" d="M225.203,24.063h-7.553l-1.563,4.265
			h-2.092l6.437-17.056h2.01l6.455,17.056h-2.131L225.203,24.063z M224.492,22.113l-3.065-8.357l-3.065,8.357H224.492z"/>
		<path fill="#323232" stroke="#323232" stroke-width="0.3217" stroke-miterlimit="10" d="M244.876,28.327l-3.065-5.239
			c-0.379,0.033-0.678,0.049-0.894,0.049h-3.513v5.19h-2.03V11.271h5.543c1.84,0,3.289,0.528,4.345,1.583
			c1.057,1.056,1.584,2.51,1.584,4.361c0,1.316-0.271,2.437-0.813,3.362c-0.541,0.926-1.313,1.6-2.313,2.022l3.37,5.727
			L244.876,28.327L244.876,28.327z M243.8,20.066c0.677-0.666,1.015-1.616,1.015-2.851c0-1.234-0.338-2.18-1.015-2.838
			s-1.657-0.987-2.944-0.987h-3.451v7.674h3.451C242.143,21.064,243.123,20.733,243.8,20.066z"/>
		<path fill="#323232" stroke="#323232" stroke-width="0.3217" stroke-miterlimit="10" d="M257.117,13.39h-4.872v-2.12H264v2.12
			h-4.872v14.937h-2.011V13.39z"/>
	</g>
</g>
</svg>
